# xmcd
#
# Track frame offsets: 
#        150
#        3882
#        19969
#        34452
#        39474
#        52885
#        65200
#        78048
#        87541
#        100404
#        112739
#        123605
#        135711
#        146544
#        158315
#        169877
#        175377
#        185795
#        192726
#        201610
#        215155
#        233407
#        239067
#        248076
#
# Disc length: 3422 seconds
#
# Revision: 0
# Processed by: cddbd v1.5.2PL0 Copyright (c) Steve Scherf et al.
# Submitted via: ExactAudioCopy v0.99pb5
#
DISCID=600d5c18
DTITLE=Various Artist - Hoss Allen's 1966 Rhythm and Blues Review
DYEAR=2010
DGENRE=R&B
TTITLE0=The Beat Theme - The Beat Boys
TTITLE1=Have You Ever Been Mistreated - Clarence 'Gatemouth' Brown
TTITLE2=The Best Man I Ever Had - Cleo Randle
TTITLE3=Hitch Hike - The Beat Boys
TTITLE4=I'm Falling In Love Again - The Kelly Brothers
TTITLE5=Empty Arms And Bitter Tears - Gerri Taylor
TTITLE6=Try Me - Frank Howard and The Commanders
TTITLE7=Don't You Want A Man Like Me - Jimmy Church (w/ Gerri Taylor &
TTITLE7=Frank Howard)
TTITLE8=Tell Me Why You Hurt Me So - Mighty Joe Young
TTITLE9=I Got Soul - Art Grayson
TTITLE10=In The Midnight Hour - The Mighty Hannibal
TTITLE11=Late In The Evening - Bobby Powell
TTITLE12=Respect - Rodge Martin
TTITLE13=They Say - Rodge Martin
TTITLE14=Treat Her Right - Lattimore Brown
TTITLE15=Blues For Cochise - The Beat Boys
TTITLE16=I Don't Know Why I Love You - Clarence 'Frogman' Henry
TTITLE17=Shootout At The KO Corral - The Beat Boys
TTITLE18=Just A Litte Bit - Robert Parker
TTITLE19=Best Of Luck To You - Earl Gaines
TTITLE20=Got You On My Mind - Bobby Hebb
TTITLE21=Soul Drag - The Beat Boys
TTITLE22=24 Hours A Day - Earl Gaines
TTITLE23=Ram Bunk Shush - The Beat Boys
EXTD=
EXTT0=
EXTT1=
EXTT2=
EXTT3=
EXTT4=
EXTT5=
EXTT6=
EXTT7=
EXTT8=
EXTT9=
EXTT10=
EXTT11=
EXTT12=
EXTT13=
EXTT14=
EXTT15=
EXTT16=
EXTT17=
EXTT18=
EXTT19=
EXTT20=
EXTT21=
EXTT22=
EXTT23=
PLAYORDER=
